<svg xmlns="http://www.w3.org/2000/svg" xmlns:svg="http://www.w3.org/2000/svg" id="svg5" width="16" height="16" version="1.1" viewBox="0 0 16 16"><path id="rect835" d="m 13,5 v 6 c 0,0.554 -0.446,1 -1,1 -0.554,0 -1,-0.446 -1,-1 V 5 c 0,-0.554 0.446,-1 1,-1 0.554,0 1,0.446 1,1 z" style="fill:#241f31;stroke-width:2;stroke-linecap:round;stroke-linejoin:round;stop-color:#000"/><path style="color:#000;fill:#241f31;stroke-linecap:round;stroke-linejoin:round;-inkscape-stroke:none" id="rect932" d="M 3.3574219,1 C 2.0667347,1 1,2.0667347 1,3.3574219 V 12.642578 C 1,13.933266 2.0667348,15 3.3574219,15 H 12.642578 C 13.933266,15 15,13.933266 15,12.642578 V 3.3574219 C 15,2.0667348 13.933266,1 12.642578,1 Z m 0,1 H 12.642578 C 13.377479,2 14,2.6225219 14,3.3574219 V 12.642578 C 14,13.377479 13.377479,14 12.642578,14 H 3.3574219 C 2.6225219,14 2,13.377479 2,12.642578 V 3.3574219 C 2,2.6225221 2.6225221,2 3.3574219,2 Z"/></svg>