<?xml version="1.0" encoding="UTF-8" standalone="no"?>
<!-- Created with Inkscape (http://www.inkscape.org/) -->

<svg
   width="16"
   height="16"
   viewBox="0 0 16 16"
   version="1.1"
   id="svg5"
   sodipodi:docname="dock-right-symbolic.svg"
   inkscape:version="1.1.2 (0a00cf5339, 2022-02-04)"
   xmlns:inkscape="http://www.inkscape.org/namespaces/inkscape"
   xmlns:sodipodi="http://sodipodi.sourceforge.net/DTD/sodipodi-0.dtd"
   xmlns="http://www.w3.org/2000/svg"
   xmlns:svg="http://www.w3.org/2000/svg">
  <sodipodi:namedview
     id="namedview8"
     pagecolor="#ffffff"
     bordercolor="#666666"
     borderopacity="1.0"
     inkscape:pageshadow="2"
     inkscape:pageopacity="0.0"
     inkscape:pagecheckerboard="0"
     showgrid="true"
     inkscape:zoom="46.5625"
     inkscape:cx="8.0107383"
     inkscape:cy="7.9892617"
     inkscape:window-width="2560"
     inkscape:window-height="919"
     inkscape:window-x="0"
     inkscape:window-y="0"
     inkscape:window-maximized="1"
     inkscape:current-layer="svg5">
    <inkscape:grid
       type="xygrid"
       id="grid825" />
  </sodipodi:namedview>
  <defs
     id="defs2" />
  <path
     id="rect835"
     style="fill:#241f31;stroke-width:2;stroke-linecap:round;stroke-linejoin:round;stop-color:#000000"
     d="m 13,5 v 6 c 0,0.554 -0.446,1 -1,1 -0.554,0 -1,-0.446 -1,-1 V 5 c 0,-0.554 0.446,-1 1,-1 0.554,0 1,0.446 1,1 z" />
  <path
     style="color:#000000;fill:#241f31;stroke-linecap:round;stroke-linejoin:round;-inkscape-stroke:none"
     d="M 3.3574219,1 C 2.0667347,1 1,2.0667347 1,3.3574219 V 12.642578 C 1,13.933266 2.0667348,15 3.3574219,15 H 12.642578 C 13.933266,15 15,13.933266 15,12.642578 V 3.3574219 C 15,2.0667348 13.933266,1 12.642578,1 Z m 0,1 H 12.642578 C 13.377479,2 14,2.6225219 14,3.3574219 V 12.642578 C 14,13.377479 13.377479,14 12.642578,14 H 3.3574219 C 2.6225219,14 2,13.377479 2,12.642578 V 3.3574219 C 2,2.6225221 2.6225221,2 3.3574219,2 Z"
     id="rect932" />
</svg>
