<svg xmlns="http://www.w3.org/2000/svg" xmlns:svg="http://www.w3.org/2000/svg" id="svg86343" width="189.317" height="23.031" version="1.1"><metadata id="metadata86349"/><path style="color:#000;display:inline;overflow:visible;visibility:visible;fill:#d3d7cf;fill-opacity:1;fill-rule:nonzero;stroke:#babdb6;stroke-width:1px;stroke-linecap:butt;stroke-linejoin:miter;stroke-miterlimit:4;stroke-dasharray:none;stroke-dashoffset:0;stroke-opacity:1;marker:none;enable-background:accumulate" id="path14406" d="M 47.073937,3.360306 C 36.294607,3.86557 22.240407,1.93488 22.240407,1.93488 l -1.05225,1.559872 c 0,0 -5.49117,1.362729 -8.2077,1.850845 -2.71653,0.488109 -7.5711996,3.679579 -7.5711996,3.679579 l -1e-5,1.545431 -3.89851,-8e-6 c -1.30925997,-0.03586 -1.38545997,1.983788 -9e-5,1.983788 l 3.89851,8e-6 v 1.451666 c 0,0 4.8546896,3.19148 7.5712196,3.6796 2.71652,0.48811 8.20768,1.85083 8.20768,1.85083 l 1.05226,1.55987 c 0,0 14.0542,-1.93069 24.83354,-1.42541 10.77934,0.50526 28.937381,2.86028 50.929782,2.86028 21.992401,-10e-6 83.129171,-4.12918 85.865071,-4.8382 2.68626,-0.69619 5.04077,-3.181414 4.94566,-6.097669 0.003,-0.0525 -0.002,-0.107307 0,-0.159523 0.098,-2.918438 -2.25786,-5.401094 -4.94566,-6.097665 C 181.13281,4.629146 119.99605,0.499977 98.003683,0.5 76.011318,0.500023 57.853267,2.855035 47.073937,3.360306 Z"/></svg>