<svg xmlns="http://www.w3.org/2000/svg" xmlns:svg="http://www.w3.org/2000/svg" id="svg86343" width="190.548" height="48.084" version="1.1"><metadata id="metadata86349"/><path style="color:#000;display:inline;overflow:visible;visibility:visible;fill:#d3d7cf;fill-opacity:1;fill-rule:nonzero;stroke:#babdb6;stroke-width:1px;stroke-linecap:butt;stroke-linejoin:miter;stroke-miterlimit:4;stroke-dasharray:none;stroke-dashoffset:0;stroke-opacity:1;marker:none;enable-background:accumulate" id="path5306" d="m 190.04818,14.311086 c 0,1.43276 -1.88644,2.59423 -4.21348,2.59423 -0.06,0 -0.11387,0.002 -0.17315,0 v 0.9224 L 97.4674,27.051651 c -9.23499,-0.9224 -29.69978,17.886897 -29.69978,17.886897 -5.27125,4.02955 -22.05579,3.90834 -27.55716,-3.58982 l -8.31149,-12.4523 -15.23774,-5.073157 v -0.5765 C 10.06256,22.765871 0.5,19.464966 0.5,17.943016 c 0,-2.11004 11.12955,-4.72727 19.16261,-4.72727 0.1448,0 0.28896,-0.002 0.43293,0 0,0 9.2445,-5.3861297 20.17264,-8.1285897 2.81141,-6.28314 13.64962,-5.78289004 16.4982,-0.49916 l 3.91974,0.009 c 0.84067,-0.83292 2.00027,-1.75859 3.53531,-1.75859 1.88597,0 3.49443,0.81769 4.21347,1.98891 l 14.74708,1.15341 102.47958,4.4678397 v 1.26829 c 0.0591,-0.002 0.11321,0 0.17315,0 2.32703,0 4.21347,1.16148 4.21347,2.59423 z"/></svg>