<svg xmlns="http://www.w3.org/2000/svg" xmlns:svg="http://www.w3.org/2000/svg" id="svg86343" width="188.591" height="31.022" version="1.1"><metadata id="metadata86349"/><g style="display:inline" id="g10545" transform="rotate(90,-56.803429,534.11634)"><path id="rect10526" d="m 351.16741,385.06603 c -2.25232,0 -3.61834,1.53072 -4.16741,4.08946 L 345.53125,396 H 344.125 c -1.9944,0 -3.59375,1.59935 -3.59375,3.59375 V 516 L 338,545.125 c -0.1873,2.15512 1.62589,3.92035 3.75,4.125 l 1.625,6.6639 h 2.20868 l -1.40241,1.58029 c 0,0 3.53964,7.3799 5.83774,7.46829 l 1.42852,-6.9e-4 0.0512,7.31672 3.97602,-2.37893 -0.0292,-4.98639 1.38503,0.0197 c 2.82843,0 5.42789,-7.64858 5.42789,-7.64858 l -1.5299,-1.37038 h 2.20868 l 1.65625,-6.72641 c 1.96694,-0.35188 3.54637,-2.02216 3.40625,-4.0625 L 365.53125,516 V 399.59375 c 0,-1.9944 -1.59935,-3.59375 -3.59375,-3.59375 h -1.40625 L 359,389.15549 c -0.53643,-2.39779 -1.88996,-4.08946 -4.16741,-4.08946 z" transform="translate(-928.4063,-95.84375)" style="color:#000;display:inline;overflow:visible;visibility:visible;fill:#d3d7cf;fill-opacity:1;fill-rule:nonzero;stroke:#babdb6;stroke-width:1px;stroke-linecap:butt;stroke-linejoin:miter;stroke-miterlimit:4;stroke-dasharray:none;stroke-dashoffset:0;stroke-opacity:1;marker:none;enable-background:accumulate"/><rect style="color:#000;display:inline;overflow:visible;visibility:visible;fill:#eeeeec;fill-opacity:1;fill-rule:nonzero;stroke:#babdb6;stroke-width:1px;stroke-linecap:butt;stroke-linejoin:miter;stroke-miterlimit:4;stroke-dasharray:none;stroke-dashoffset:0;stroke-opacity:1;marker:none;enable-background:accumulate" id="rect10541" width="9.006" height="35.215" x="-579.934" y="385.906" rx="3.25" ry="3.25"/></g></svg>