<svg xmlns="http://www.w3.org/2000/svg" xmlns:svg="http://www.w3.org/2000/svg" id="svg86343" width="190.358" height="31.022" version="1.1"><metadata id="metadata86349"/><g style="display:inline" id="g10545" transform="rotate(90,-56.008515,534.91126)"><path id="rect10526" d="m 344.125,384.88832 c -1.9944,0 -3.59375,1.59935 -3.59375,3.59375 V 516 L 338,545.125 c -0.1873,2.15512 1.62589,3.92035 3.75,4.125 l 4.625,10.90625 h 1.53125 v 2.15625 l 3.61536,8.57242 1.18546,0.0214 0.44918,3.78119 0.33938,-3.7414 1.14797,-0.0687 3.76265,-8.53366 v -2.1875 h 1.53125 l 4.65625,-10.96875 c 1.96694,-0.35188 3.54637,-2.02216 3.40625,-4.0625 L 365.53125,516 V 388.48207 c 0,-1.9944 -1.59935,-3.59375 -3.59375,-3.59375 z" transform="translate(-928.4063,-95.84375)" style="color:#000;display:inline;overflow:visible;visibility:visible;fill:#d3d7cf;fill-opacity:1;fill-rule:nonzero;stroke:#babdb6;stroke-width:1px;stroke-linecap:butt;stroke-linejoin:miter;stroke-miterlimit:4;stroke-dasharray:none;stroke-dashoffset:0;stroke-opacity:1;marker:none;enable-background:accumulate"/><rect style="color:#000;display:inline;overflow:visible;visibility:visible;fill:#eeeeec;fill-opacity:1;fill-rule:nonzero;stroke:#babdb6;stroke-width:1px;stroke-linecap:butt;stroke-linejoin:miter;stroke-miterlimit:4;stroke-dasharray:none;stroke-dashoffset:0;stroke-opacity:1;marker:none;enable-background:accumulate" id="rect10541" width="8.75" height="22" x="-579.656" y="385.906" rx="3.25" ry="3.25"/><rect style="color:#000;display:inline;overflow:visible;visibility:visible;fill:#eeeeec;fill-opacity:1;fill-rule:nonzero;stroke:#babdb6;stroke-width:1px;stroke-linecap:butt;stroke-linejoin:miter;stroke-miterlimit:4;stroke-dasharray:none;stroke-dashoffset:0;stroke-opacity:1;marker:none;enable-background:accumulate" id="rect10543" width="8.75" height="12.25" x="-579.656" y="410.906" rx="3.25" ry="3.25"/><rect style="color:#000;display:inline;overflow:visible;visibility:visible;fill:#eeeeec;fill-opacity:1;fill-rule:nonzero;stroke:#babdb6;stroke-width:1px;stroke-linecap:butt;stroke-linejoin:miter;stroke-miterlimit:4;stroke-dasharray:none;stroke-dashoffset:0;stroke-opacity:1;marker:none;enable-background:accumulate" id="rect10544" width="8.75" height="8.75" x="-579.656" y="429.156" rx="3.25" ry="3.25"/></g></svg>