<svg xmlns="http://www.w3.org/2000/svg" xmlns:svg="http://www.w3.org/2000/svg" id="svg5" width="16" height="16" version="1.1" viewBox="0 0 16 16"><g id="layer1"><path id="path1272" d="M 15,8.0000001 A 0.99999974,0.99999996 0 0 1 13.999999,9 0.99999974,0.99999996 0 0 1 13,8.0000001 0.99999974,0.99999996 0 0 1 13.999999,7 0.99999974,0.99999996 0 0 1 15,8.0000001 Z" style="fill:#2d2d2d;stroke-width:.999997;stroke-linecap:round;stroke-linejoin:round;stop-color:#000"/><path id="path856" d="M 9,8.0000001 A 1,0.99999996 0 0 1 8,9 1,0.99999996 0 0 1 7,8.0000001 1,0.99999996 0 0 1 8,7 1,0.99999996 0 0 1 9,8.0000001 Z" style="fill:#2d2d2d;stroke-width:.999997;stroke-linecap:round;stroke-linejoin:round;stop-color:#000"/><path id="path1164" d="M 9,14 A 1,1.0000002 0 0 1 8,15 1,1.0000002 0 0 1 7,14 1,1.0000002 0 0 1 8,13 1,1.0000002 0 0 1 9,14 Z" style="fill:#2d2d2d;stroke-width:.999997;stroke-linecap:round;stroke-linejoin:round;stop-color:#000"/><path id="path1268" d="M 3,8.0000001 A 1,0.99999996 0 0 1 2,9 1,0.99999996 0 0 1 1,8.0000001 1,0.99999996 0 0 1 2,7 1,0.99999996 0 0 1 3,8.0000001 Z" style="fill:#2d2d2d;stroke-width:.999997;stroke-linecap:round;stroke-linejoin:round;stop-color:#000"/><path id="path1270" d="M 9,2 A 1,0.99999996 0 0 1 8,3 1,0.99999996 0 0 1 7,2 1,0.99999996 0 0 1 8,1 1,0.99999996 0 0 1 9,2 Z" style="fill:#2d2d2d;stroke-width:.999997;stroke-linecap:round;stroke-linejoin:round;stop-color:#000"/><path id="rect1961" d="M 5,3 H 6 V 4 H 5 Z" style="fill:#2d2d2d;stroke-width:1;stroke-linecap:round;stroke-linejoin:round;stop-color:#000"/><path id="rect1965-6" d="M 3,5 H 4 V 6 H 3 Z" style="fill:#2d2d2d;stroke-width:1;stroke-linecap:round;stroke-linejoin:round;stop-color:#000"/><path id="rect1965-3-1" d="M 4,4 H 5 V 5 H 4 Z" style="fill:#2d2d2d;stroke-width:1;stroke-linecap:round;stroke-linejoin:round;stop-color:#000"/><path id="rect1963" d="m 10,3 h 1 v 1 h -1 z" style="fill:#2d2d2d;stroke-width:1;stroke-linecap:round;stroke-linejoin:round;stop-color:#000"/><path id="rect1965-3-9" d="m 11,4 h 1 v 1 h -1 z" style="fill:#2d2d2d;stroke-width:1;stroke-linecap:round;stroke-linejoin:round;stop-color:#000"/><path id="rect1965-5" d="m 12,5 h 1 v 1 h -1 z" style="fill:#2d2d2d;stroke-width:1;stroke-linecap:round;stroke-linejoin:round;stop-color:#000"/><path id="rect1965" d="m 12,10 h 1 v 1 h -1 z" style="fill:#2d2d2d;stroke-width:1;stroke-linecap:round;stroke-linejoin:round;stop-color:#000"/><path id="rect1965-3" d="m 10,12 h 1 v 1 h -1 z" style="fill:#2d2d2d;stroke-width:1;stroke-linecap:round;stroke-linejoin:round;stop-color:#000"/><path id="rect1965-3-2" d="m 11,11 h 1 v 1 h -1 z" style="fill:#2d2d2d;stroke-width:1;stroke-linecap:round;stroke-linejoin:round;stop-color:#000"/><path id="rect1967" d="m 3,10 h 1 v 1 H 3 Z" style="fill:#2d2d2d;stroke-width:1;stroke-linecap:round;stroke-linejoin:round;stop-color:#000"/><path id="rect1967-5" d="m 4,11 h 1 v 1 H 4 Z" style="fill:#2d2d2d;stroke-width:1;stroke-linecap:round;stroke-linejoin:round;stop-color:#000"/><path id="rect1965-3-27" d="m 5,12 h 1 v 1 H 5 Z" style="fill:#2d2d2d;stroke-width:1;stroke-linecap:round;stroke-linejoin:round;stop-color:#000"/><rect style="fill:#2d2d2d;fill-opacity:1;stroke:none;stroke-width:.999987;stroke-linecap:round;stroke-linejoin:round;stop-color:#000" id="rect2093" width="2" height="6" x="7" y="8"/></g></svg>