<?xml version="1.0" encoding="UTF-8" standalone="no"?>
<!-- Created with Inkscape (http://www.inkscape.org/) -->
<svg width="16" height="16" viewBox="0 0 16 16" version="1.1" id="svg5" inkscape:version="1.1.2 (0a00cf5339, 2022-02-04)" sodipodi:docname="fyra-account-symbolic.svg" xmlns:inkscape="http://www.inkscape.org/namespaces/inkscape" xmlns:sodipodi="http://sodipodi.sourceforge.net/DTD/sodipodi-0.dtd" xmlns="http://www.w3.org/2000/svg" xmlns:svg="http://www.w3.org/2000/svg">
    <sodipodi:namedview id="namedview7" pagecolor="#ffffff" bordercolor="#666666" borderopacity="1.0" inkscape:pageshadow="2" inkscape:pageopacity="0.0" inkscape:pagecheckerboard="0" inkscape:document-units="px" showgrid="true" units="px" height="16px" inkscape:zoom="38.443359" inkscape:cx="6.0478586" inkscape:cy="8.2458975" inkscape:current-layer="layer1">
        <inkscape:grid type="xygrid" id="grid858" />
    </sodipodi:namedview>
    <defs id="defs2" />
    <g inkscape:label="Layer 1" inkscape:groupmode="layer" id="layer1">
        <path id="path1272" style="fill:#2d2d2d;stroke-width:0.999997;stroke-linecap:round;stroke-linejoin:round;stop-color:#000000" d="M 15,8.0000001 A 0.99999974,0.99999996 0 0 1 13.999999,9 0.99999974,0.99999996 0 0 1 13,8.0000001 0.99999974,0.99999996 0 0 1 13.999999,7 0.99999974,0.99999996 0 0 1 15,8.0000001 Z" />
        <path id="path856" style="fill:#2d2d2d;stroke-width:0.999997;stroke-linecap:round;stroke-linejoin:round;stop-color:#000000" d="M 9,8.0000001 A 1,0.99999996 0 0 1 8,9 1,0.99999996 0 0 1 7,8.0000001 1,0.99999996 0 0 1 8,7 1,0.99999996 0 0 1 9,8.0000001 Z" />
        <path id="path1164" style="fill:#2d2d2d;stroke-width:0.999997;stroke-linecap:round;stroke-linejoin:round;stop-color:#000000" d="M 9,14 A 1,1.0000002 0 0 1 8,15 1,1.0000002 0 0 1 7,14 1,1.0000002 0 0 1 8,13 1,1.0000002 0 0 1 9,14 Z" />
        <path id="path1268" style="fill:#2d2d2d;stroke-width:0.999997;stroke-linecap:round;stroke-linejoin:round;stop-color:#000000" d="M 3,8.0000001 A 1,0.99999996 0 0 1 2,9 1,0.99999996 0 0 1 1,8.0000001 1,0.99999996 0 0 1 2,7 1,0.99999996 0 0 1 3,8.0000001 Z" />
        <path id="path1270" style="fill:#2d2d2d;stroke-width:0.999997;stroke-linecap:round;stroke-linejoin:round;stop-color:#000000" d="M 9,2 A 1,0.99999996 0 0 1 8,3 1,0.99999996 0 0 1 7,2 1,0.99999996 0 0 1 8,1 1,0.99999996 0 0 1 9,2 Z" />
        <path id="rect1961" style="fill:#2d2d2d;stroke-width:1;stroke-linecap:round;stroke-linejoin:round;stop-color:#000000" d="M 5,3 H 6 V 4 H 5 Z" />
        <path id="rect1965-6" style="fill:#2d2d2d;stroke-width:1;stroke-linecap:round;stroke-linejoin:round;stop-color:#000000" d="M 3,5 H 4 V 6 H 3 Z" />
        <path id="rect1965-3-1" style="fill:#2d2d2d;stroke-width:1;stroke-linecap:round;stroke-linejoin:round;stop-color:#000000" d="M 4,4 H 5 V 5 H 4 Z" />
        <path id="rect1963" style="fill:#2d2d2d;stroke-width:1;stroke-linecap:round;stroke-linejoin:round;stop-color:#000000" d="m 10,3 h 1 v 1 h -1 z" />
        <path id="rect1965-3-9" style="fill:#2d2d2d;stroke-width:1;stroke-linecap:round;stroke-linejoin:round;stop-color:#000000" d="m 11,4 h 1 v 1 h -1 z" />
        <path id="rect1965-5" style="fill:#2d2d2d;stroke-width:1;stroke-linecap:round;stroke-linejoin:round;stop-color:#000000" d="m 12,5 h 1 v 1 h -1 z" />
        <path id="rect1965" style="fill:#2d2d2d;stroke-width:1;stroke-linecap:round;stroke-linejoin:round;stop-color:#000000" d="m 12,10 h 1 v 1 h -1 z" />
        <path id="rect1965-3" style="fill:#2d2d2d;stroke-width:1;stroke-linecap:round;stroke-linejoin:round;stop-color:#000000" d="m 10,12 h 1 v 1 h -1 z" />
        <path id="rect1965-3-2" style="fill:#2d2d2d;stroke-width:1;stroke-linecap:round;stroke-linejoin:round;stop-color:#000000" d="m 11,11 h 1 v 1 h -1 z" />
        <path id="rect1967" style="fill:#2d2d2d;stroke-width:1;stroke-linecap:round;stroke-linejoin:round;stop-color:#000000" d="m 3,10 h 1 v 1 H 3 Z" />
        <path id="rect1967-5" style="fill:#2d2d2d;stroke-width:1;stroke-linecap:round;stroke-linejoin:round;stop-color:#000000" d="m 4,11 h 1 v 1 H 4 Z" />
        <path id="rect1965-3-27" style="fill:#2d2d2d;stroke-width:1;stroke-linecap:round;stroke-linejoin:round;stop-color:#000000" d="m 5,12 h 1 v 1 H 5 Z" />
        <rect style="fill:#2d2d2d;fill-opacity:1;stroke:none;stroke-width:0.999987;stroke-linecap:round;stroke-linejoin:round;stop-color:#000000" id="rect2093" width="1.9999999" height="6" x="7" y="8" />
    </g>
</svg>